<svg id="Слой_1" data-name="Слой 1" xmlns="http://www.w3.org/2000/svg" viewBox="0 0 1000 1000"><defs><style>.cls-1{fill:#fff;}.cls-2{fill:#3a3a3a;}.cls-3{fill:#999;}.cls-4{fill:#161616;}.cls-5{fill:#006616;}.cls-6{fill:#ffc183;}.cls-7{fill:#00c12d;}.cls-8{fill:#e55820;}.cls-9{fill:#7f7f7f;}</style></defs><rect class="cls-1" x="104.06" width="711.02" height="1000" rx="33.65"/><path class="cls-2" d="M178.16,53.8a61.2,61.2,0,1,0,61.2,61.2A61.2,61.2,0,0,0,178.16,53.8Zm0,102.32A41.12,41.12,0,1,1,219.28,115,41.12,41.12,0,0,1,178.16,156.12Z"/><path class="cls-2" d="M178.16,182.48a61.2,61.2,0,1,0,61.2,61.2A61.2,61.2,0,0,0,178.16,182.48Zm0,102.32a41.12,41.12,0,1,1,41.12-41.12A41.12,41.12,0,0,1,178.16,284.8Z"/><path class="cls-2" d="M178.16,310.64a61.2,61.2,0,1,0,61.2,61.2A61.2,61.2,0,0,0,178.16,310.64Zm0,102.32a41.12,41.12,0,1,1,41.12-41.12A41.12,41.12,0,0,1,178.16,413Z"/><path class="cls-2" d="M178.16,439.84a61.2,61.2,0,1,0,61.2,61.2A61.2,61.2,0,0,0,178.16,439.84Zm0,102.32A41.12,41.12,0,1,1,219.28,501,41.12,41.12,0,0,1,178.16,542.16Z"/><path class="cls-2" d="M178.16,567a61.2,61.2,0,1,0,61.2,61.2A61.2,61.2,0,0,0,178.16,567Zm0,102.32a41.12,41.12,0,1,1,41.12-41.12A41.12,41.12,0,0,1,178.16,669.28Z"/><path class="cls-2" d="M178.16,695.12a61.2,61.2,0,1,0,61.2,61.2A61.2,61.2,0,0,0,178.16,695.12Zm0,102.32a41.12,41.12,0,1,1,41.12-41.12A41.12,41.12,0,0,1,178.16,797.44Z"/><path class="cls-2" d="M178,823.64a61.2,61.2,0,1,0,61.2,61.2A61.2,61.2,0,0,0,178,823.64ZM178,926a41.12,41.12,0,1,1,41.12-41.12A41.12,41.12,0,0,1,178,926Z"/><rect class="cls-3" y="84.2" width="208.12" height="62.64" rx="31.32"/><rect class="cls-3" y="212.36" width="208.12" height="62.64" rx="31.32"/><rect class="cls-3" y="340.52" width="208.12" height="62.64" rx="31.32"/><rect class="cls-3" y="468.68" width="208.12" height="62.64" rx="31.32"/><rect class="cls-3" y="596.84" width="208.12" height="62.64" rx="31.32"/><rect class="cls-3" y="725" width="208.12" height="62.64" rx="31.32"/><rect class="cls-3" y="853.16" width="208.12" height="62.64" rx="31.32"/><path class="cls-4" d="M974.26,1000H910.78a26.58,26.58,0,0,1-26.58-26.58V173.56l31.62-94.1L942.52,0l58.32,173.56V973.42A26.58,26.58,0,0,1,974.26,1000Z"/><polygon class="cls-5" points="987.88 861.42 894.66 861.42 890.09 156.13 894.66 142.42 990.39 142.47 995.36 157.35 987.88 861.42"/><path class="cls-6" d="M956.09,40.39H929L884.2,173.56,915.43,154a51.17,51.17,0,0,1,54.54.08l30.87,19.51Z"/><path class="cls-7" d="M933.16,861.42h-49V173.56c9.84-29.3,8.1-31.14,24.48-31.14h0a24.48,24.48,0,0,1,24.48,24.48Z"/><path class="cls-7" d="M1000.84,861.42H951.16V167.26A24.84,24.84,0,0,1,976,142.42h0c13.72,0,16.77,3.75,24.84,31.14Z"/><path class="cls-8" d="M884.2,861.42h116.64a0,0,0,0,1,0,0V973.06A26.94,26.94,0,0,1,973.9,1000H911.14a26.94,26.94,0,0,1-26.94-26.94V861.42A0,0,0,0,1,884.2,861.42Z"/><rect class="cls-9" x="884.2" y="810.76" width="116.64" height="95.04"/></svg>