<svg id="Слой_1" data-name="Слой 1" xmlns="http://www.w3.org/2000/svg" viewBox="0 0 1000 1000"><defs><style>.cls-1{fill:#fff;}.cls-2{fill:#999;}.cls-3{fill:#ff1d1d;}</style></defs><rect class="cls-1" width="1000" height="1000" rx="33.65"/><rect class="cls-2" x="51.61" y="120.77" width="648.39" height="87.1" rx="32.26"/><rect class="cls-2" x="300" y="230.44" width="648.39" height="43.55" rx="18.39"/><rect class="cls-2" x="300" y="296.57" width="200" height="43.55" rx="18.39"/><rect class="cls-2" x="524.19" y="296.57" width="340.32" height="43.55" rx="18.39"/><rect class="cls-2" x="300" y="362.7" width="564.52" height="43.55" rx="18.39"/><rect class="cls-2" x="51.61" y="230.44" width="221.77" height="221.77" rx="27.42"/><rect class="cls-2" x="51.61" y="547.78" width="648.39" height="87.1" rx="32.26"/><rect class="cls-2" x="300" y="657.46" width="648.39" height="43.55" rx="18.39"/><rect class="cls-2" x="300" y="723.59" width="200" height="43.55" rx="18.39"/><rect class="cls-2" x="524.19" y="723.59" width="340.32" height="43.55" rx="18.39"/><rect class="cls-2" x="300" y="789.72" width="564.52" height="43.55" rx="18.39"/><rect class="cls-2" x="51.61" y="657.46" width="221.77" height="221.77" rx="27.42"/><rect class="cls-3" x="872.42" y="11.17" width="34.6" height="198.23"/><rect class="cls-3" x="872.42" y="11.17" width="34.6" height="198.23" transform="translate(1000 -779.43) rotate(90)"/><rect class="cls-3" x="872.42" y="11.17" width="34.6" height="198.23" transform="translate(338.57 -596.82) rotate(45)"/><rect class="cls-3" x="872.42" y="11.17" width="34.6" height="198.23" transform="translate(1596.82 -440.86) rotate(135)"/></svg>