<svg width="235" height="46" viewBox="0 0 235 46" fill="none" xmlns="http://www.w3.org/2000/svg">
<path d="M7.93973 13.438C8.89173 13.2567 9.9344 13.1207 11.0677 13.03C12.2237 12.9167 13.3684 12.86 14.5017 12.86C15.6804 12.86 16.8591 12.962 18.0377 13.166C19.2391 13.3473 20.3157 13.7327 21.2677 14.322C22.2197 14.8887 22.9904 15.6933 23.5797 16.736C24.1917 17.756 24.4977 19.0933 24.4977 20.748C24.4977 22.244 24.2371 23.5133 23.7157 24.556C23.1944 25.576 22.5031 26.4147 21.6417 27.072C20.7804 27.7293 19.7944 28.2053 18.6837 28.5C17.5957 28.7947 16.4624 28.942 15.2837 28.942C15.1704 28.942 14.9891 28.942 14.7397 28.942C14.4904 28.942 14.2297 28.942 13.9577 28.942C13.6857 28.9193 13.4137 28.8967 13.1417 28.874C12.8924 28.8513 12.7111 28.8287 12.5977 28.806V37H7.93973V13.438ZM14.8757 16.872C14.4224 16.872 13.9917 16.8947 13.5837 16.94C13.1757 16.9627 12.8471 16.9967 12.5977 17.042V24.76C12.6884 24.7827 12.8244 24.8053 13.0057 24.828C13.1871 24.8507 13.3797 24.8733 13.5837 24.896C13.7877 24.896 13.9804 24.896 14.1617 24.896C14.3657 24.896 14.5131 24.896 14.6037 24.896C15.2157 24.896 15.8164 24.8393 16.4057 24.726C17.0177 24.6127 17.5617 24.4087 18.0377 24.114C18.5137 23.7967 18.8877 23.366 19.1597 22.822C19.4544 22.278 19.6017 21.564 19.6017 20.68C19.6017 19.932 19.4657 19.32 19.1937 18.844C18.9217 18.3453 18.5591 17.9487 18.1057 17.654C17.6751 17.3593 17.1764 17.1553 16.6097 17.042C16.0431 16.9287 15.4651 16.872 14.8757 16.872ZM39.6663 35.538C38.9863 36.082 38.0569 36.5467 36.8783 36.932C35.7223 37.2947 34.4869 37.476 33.1723 37.476C30.4296 37.476 28.4236 36.6827 27.1543 35.096C25.8849 33.4867 25.2503 31.288 25.2503 28.5C25.2503 25.508 25.9643 23.264 27.3923 21.768C28.8203 20.272 30.8263 19.524 33.4103 19.524C34.2716 19.524 35.1103 19.6373 35.9263 19.864C36.7423 20.0907 37.4676 20.4647 38.1023 20.986C38.7369 21.5073 39.2469 22.21 39.6323 23.094C40.0176 23.978 40.2103 25.0773 40.2103 26.392C40.2103 26.868 40.1763 27.378 40.1083 27.922C40.0629 28.466 39.9836 29.0327 39.8703 29.622H29.6703C29.7383 31.05 30.1009 32.1267 30.7583 32.852C31.4383 33.5773 32.5263 33.94 34.0223 33.94C34.9516 33.94 35.7789 33.804 36.5043 33.532C37.2523 33.2373 37.8189 32.9427 38.2043 32.648L39.6663 35.538ZM33.3423 23.06C32.1863 23.06 31.3249 23.4113 30.7583 24.114C30.2143 24.794 29.8856 25.712 29.7723 26.868H36.0963C36.1869 25.644 35.9943 24.7033 35.5183 24.046C35.0649 23.3887 34.3396 23.06 33.3423 23.06ZM52.7159 24.148C52.0132 23.8987 51.3785 23.774 50.8119 23.774C50.0185 23.774 49.3499 23.9893 48.8059 24.42C48.2845 24.828 47.9332 25.3607 47.7519 26.018V37H43.3319V20H46.7659L47.2759 22.244H47.4119C47.7972 21.4053 48.3185 20.7593 48.9759 20.306C49.6332 19.8527 50.4039 19.626 51.2879 19.626C51.8772 19.626 52.5459 19.7507 53.2939 20L52.7159 24.148ZM62.2898 32.308C62.2898 31.8547 62.0971 31.492 61.7118 31.22C61.3265 30.948 60.8505 30.6987 60.2838 30.472C59.7171 30.2453 59.0938 30.0187 58.4138 29.792C57.7338 29.5427 57.1105 29.214 56.5438 28.806C55.9771 28.3753 55.5011 27.8427 55.1158 27.208C54.7305 26.5507 54.5378 25.712 54.5378 24.692C54.5378 23.0147 55.0365 21.734 56.0338 20.85C57.0311 19.966 58.4705 19.524 60.3518 19.524C61.6438 19.524 62.8111 19.66 63.8538 19.932C64.8965 20.204 65.7125 20.51 66.3018 20.85L65.3158 24.046C64.7945 23.842 64.1371 23.6267 63.3438 23.4C62.5505 23.1733 61.7458 23.06 60.9298 23.06C59.6151 23.06 58.9578 23.57 58.9578 24.59C58.9578 24.998 59.1505 25.3267 59.5358 25.576C59.9211 25.8253 60.3971 26.0633 60.9638 26.29C61.5305 26.494 62.1538 26.7207 62.8338 26.97C63.5138 27.2193 64.1371 27.548 64.7038 27.956C65.2705 28.3413 65.7465 28.8513 66.1318 29.486C66.5171 30.1207 66.7098 30.9367 66.7098 31.934C66.7098 33.6567 66.1545 35.0167 65.0438 36.014C63.9558 36.9887 62.3125 37.476 60.1138 37.476C58.9125 37.476 57.7791 37.3173 56.7138 37C55.6711 36.7053 54.8211 36.354 54.1638 35.946L55.3878 32.648C55.9091 32.9427 56.6005 33.2373 57.4618 33.532C58.3231 33.804 59.2071 33.94 60.1138 33.94C60.7711 33.94 61.2925 33.8153 61.6778 33.566C62.0858 33.3167 62.2898 32.8973 62.2898 32.308ZM68.7795 28.5C68.7795 25.6213 69.4822 23.4113 70.8875 21.87C72.2929 20.306 74.2649 19.524 76.8035 19.524C78.1635 19.524 79.3422 19.7393 80.3395 20.17C81.3369 20.6007 82.1642 21.2127 82.8215 22.006C83.4789 22.7767 83.9662 23.7173 84.2835 24.828C84.6235 25.9387 84.7935 27.1627 84.7935 28.5C84.7935 31.3787 84.0909 33.6 82.6855 35.164C81.3029 36.7053 79.3422 37.476 76.8035 37.476C75.4435 37.476 74.2649 37.2607 73.2675 36.83C72.2702 36.3993 71.4315 35.7987 70.7515 35.028C70.0942 34.2347 69.5955 33.2827 69.2555 32.172C68.9382 31.0613 68.7795 29.8373 68.7795 28.5ZM73.3355 28.5C73.3355 29.248 73.4035 29.9393 73.5395 30.574C73.6755 31.2087 73.8795 31.764 74.1515 32.24C74.4235 32.716 74.7749 33.09 75.2055 33.362C75.6589 33.6113 76.1915 33.736 76.8035 33.736C77.9595 33.736 78.8209 33.3167 79.3875 32.478C79.9542 31.6393 80.2375 30.3133 80.2375 28.5C80.2375 26.936 79.9769 25.678 79.4555 24.726C78.9342 23.7513 78.0502 23.264 76.8035 23.264C75.7155 23.264 74.8655 23.672 74.2535 24.488C73.6415 25.304 73.3355 26.6413 73.3355 28.5ZM98.2613 37V27.344C98.2613 25.9613 98.0573 24.964 97.6493 24.352C97.2639 23.74 96.5953 23.434 95.6433 23.434C94.8046 23.434 94.0906 23.6833 93.5013 24.182C92.9346 24.658 92.5266 25.2587 92.2773 25.984V37H87.8573V20H91.3593L91.8693 22.244H92.0053C92.5266 21.5187 93.2179 20.884 94.0793 20.34C94.9406 19.796 96.0513 19.524 97.4113 19.524C98.2499 19.524 98.9979 19.6373 99.6553 19.864C100.313 20.0907 100.868 20.4647 101.321 20.986C101.775 21.5073 102.115 22.2213 102.341 23.128C102.568 24.012 102.681 25.1113 102.681 26.426V37H98.2613ZM106.283 20.986C107.189 20.578 108.266 20.2607 109.513 20.034C110.759 19.7847 112.063 19.66 113.423 19.66C114.601 19.66 115.587 19.8073 116.381 20.102C117.174 20.374 117.797 20.7707 118.251 21.292C118.727 21.8133 119.055 22.4367 119.237 23.162C119.441 23.8873 119.543 24.7033 119.543 25.61C119.543 26.6073 119.509 27.616 119.441 28.636C119.373 29.6333 119.327 30.6193 119.305 31.594C119.305 32.5687 119.339 33.5207 119.407 34.45C119.475 35.3567 119.645 36.218 119.917 37.034H116.313L115.599 34.688H115.429C114.975 35.3907 114.341 36.0027 113.525 36.524C112.731 37.0227 111.7 37.272 110.431 37.272C109.637 37.272 108.923 37.1587 108.289 36.932C107.654 36.6827 107.11 36.3427 106.657 35.912C106.203 35.4587 105.852 34.9373 105.603 34.348C105.353 33.736 105.229 33.056 105.229 32.308C105.229 31.2653 105.455 30.3927 105.909 29.69C106.385 28.9647 107.053 28.3867 107.915 27.956C108.799 27.5027 109.841 27.1967 111.043 27.038C112.267 26.8567 113.627 26.8 115.123 26.868C115.281 25.5987 115.191 24.692 114.851 24.148C114.511 23.5813 113.751 23.298 112.573 23.298C111.689 23.298 110.748 23.3887 109.751 23.57C108.776 23.7513 107.971 23.9893 107.337 24.284L106.283 20.986ZM111.893 33.634C112.777 33.634 113.479 33.4413 114.001 33.056C114.522 32.648 114.907 32.2173 115.157 31.764V29.554C114.454 29.486 113.774 29.4747 113.117 29.52C112.482 29.5653 111.915 29.6673 111.417 29.826C110.918 29.9847 110.521 30.2113 110.227 30.506C109.932 30.8007 109.785 31.1747 109.785 31.628C109.785 32.2627 109.966 32.7613 110.329 33.124C110.714 33.464 111.235 33.634 111.893 33.634ZM127.808 31.288C127.808 32.0813 127.91 32.6593 128.114 33.022C128.318 33.3847 128.646 33.566 129.1 33.566C129.372 33.566 129.632 33.5433 129.882 33.498C130.154 33.4527 130.482 33.3507 130.868 33.192L131.344 36.66C130.981 36.8413 130.426 37.0227 129.678 37.204C128.93 37.3853 128.159 37.476 127.366 37.476C126.074 37.476 125.088 37.1813 124.408 36.592C123.728 35.98 123.388 34.9827 123.388 33.6V13.2H127.808V31.288ZM131.308 40.978H146.404V44.616H131.308V40.978ZM158.723 30.608C158.723 29.8827 158.451 29.2933 157.907 28.84C157.386 28.3867 156.717 27.9787 155.901 27.616C155.108 27.2307 154.235 26.8453 153.283 26.46C152.354 26.052 151.481 25.5647 150.665 24.998C149.872 24.4087 149.203 23.6833 148.659 22.822C148.138 21.9607 147.877 20.8613 147.877 19.524C147.877 18.368 148.07 17.3707 148.455 16.532C148.841 15.6707 149.385 14.9567 150.087 14.39C150.813 13.8233 151.663 13.404 152.637 13.132C153.612 12.86 154.7 12.724 155.901 12.724C157.284 12.724 158.587 12.8487 159.811 13.098C161.035 13.3247 162.044 13.6647 162.837 14.118L161.375 18.028C160.877 17.7107 160.129 17.4273 159.131 17.178C158.134 16.906 157.057 16.77 155.901 16.77C154.813 16.77 153.975 16.9853 153.385 17.416C152.819 17.8467 152.535 18.4247 152.535 19.15C152.535 19.83 152.796 20.3967 153.317 20.85C153.861 21.3033 154.53 21.7227 155.323 22.108C156.139 22.4933 157.012 22.89 157.941 23.298C158.893 23.706 159.766 24.2047 160.559 24.794C161.375 25.3607 162.044 26.0747 162.565 26.936C163.109 27.7747 163.381 28.8287 163.381 30.098C163.381 31.3673 163.166 32.4667 162.735 33.396C162.327 34.3027 161.738 35.062 160.967 35.674C160.219 36.286 159.301 36.7393 158.213 37.034C157.148 37.3287 155.969 37.476 154.677 37.476C152.977 37.476 151.481 37.3173 150.189 37C148.897 36.6827 147.945 36.3653 147.333 36.048L148.829 32.07C149.079 32.206 149.396 32.3533 149.781 32.512C150.189 32.6707 150.643 32.818 151.141 32.954C151.64 33.09 152.161 33.2033 152.705 33.294C153.272 33.3847 153.85 33.43 154.439 33.43C155.822 33.43 156.876 33.2033 157.601 32.75C158.349 32.274 158.723 31.56 158.723 30.608ZM166.383 20H169.613L170.123 22.04H170.259C170.848 21.1787 171.539 20.544 172.333 20.136C173.149 19.728 174.135 19.524 175.291 19.524C177.421 19.524 179.019 20.204 180.085 21.564C181.15 22.9013 181.683 25.066 181.683 28.058C181.683 29.5087 181.513 30.8233 181.173 32.002C180.833 33.158 180.323 34.144 179.643 34.96C178.985 35.776 178.169 36.3993 177.195 36.83C176.243 37.2607 175.143 37.476 173.897 37.476C173.194 37.476 172.616 37.4193 172.163 37.306C171.709 37.2153 171.256 37.0567 170.803 36.83V43.8H166.383V20ZM173.965 23.264C173.103 23.264 172.423 23.4793 171.925 23.91C171.449 24.3407 171.075 24.9867 170.803 25.848V32.92C171.12 33.1693 171.46 33.3733 171.823 33.532C172.208 33.668 172.707 33.736 173.319 33.736C174.588 33.736 175.54 33.294 176.175 32.41C176.809 31.5033 177.127 30.0187 177.127 27.956C177.127 26.46 176.877 25.304 176.379 24.488C175.88 23.672 175.075 23.264 173.965 23.264ZM184.642 20.986C185.549 20.578 186.625 20.2607 187.872 20.034C189.119 19.7847 190.422 19.66 191.782 19.66C192.961 19.66 193.947 19.8073 194.74 20.102C195.533 20.374 196.157 20.7707 196.61 21.292C197.086 21.8133 197.415 22.4367 197.596 23.162C197.8 23.8873 197.902 24.7033 197.902 25.61C197.902 26.6073 197.868 27.616 197.8 28.636C197.732 29.6333 197.687 30.6193 197.664 31.594C197.664 32.5687 197.698 33.5207 197.766 34.45C197.834 35.3567 198.004 36.218 198.276 37.034H194.672L193.958 34.688H193.788C193.335 35.3907 192.7 36.0027 191.884 36.524C191.091 37.0227 190.059 37.272 188.79 37.272C187.997 37.272 187.283 37.1587 186.648 36.932C186.013 36.6827 185.469 36.3427 185.016 35.912C184.563 35.4587 184.211 34.9373 183.962 34.348C183.713 33.736 183.588 33.056 183.588 32.308C183.588 31.2653 183.815 30.3927 184.268 29.69C184.744 28.9647 185.413 28.3867 186.274 27.956C187.158 27.5027 188.201 27.1967 189.402 27.038C190.626 26.8567 191.986 26.8 193.482 26.868C193.641 25.5987 193.55 24.692 193.21 24.148C192.87 23.5813 192.111 23.298 190.932 23.298C190.048 23.298 189.107 23.3887 188.11 23.57C187.135 23.7513 186.331 23.9893 185.696 24.284L184.642 20.986ZM190.252 33.634C191.136 33.634 191.839 33.4413 192.36 33.056C192.881 32.648 193.267 32.2173 193.516 31.764V29.554C192.813 29.486 192.133 29.4747 191.476 29.52C190.841 29.5653 190.275 29.6673 189.776 29.826C189.277 29.9847 188.881 30.2113 188.586 30.506C188.291 30.8007 188.144 31.1747 188.144 31.628C188.144 32.2627 188.325 32.7613 188.688 33.124C189.073 33.464 189.595 33.634 190.252 33.634ZM213.647 35.946C212.967 36.4447 212.14 36.8187 211.165 37.068C210.213 37.34 209.227 37.476 208.207 37.476C206.847 37.476 205.691 37.2607 204.739 36.83C203.81 36.3993 203.051 35.7987 202.461 35.028C201.872 34.2347 201.441 33.2827 201.169 32.172C200.92 31.0613 200.795 29.8373 200.795 28.5C200.795 25.6213 201.441 23.4113 202.733 21.87C204.025 20.306 205.907 19.524 208.377 19.524C209.624 19.524 210.621 19.626 211.369 19.83C212.14 20.034 212.831 20.2947 213.443 20.612L212.389 24.216C211.868 23.9667 211.347 23.774 210.825 23.638C210.327 23.502 209.749 23.434 209.091 23.434C207.867 23.434 206.938 23.842 206.303 24.658C205.669 25.4513 205.351 26.732 205.351 28.5C205.351 29.2253 205.431 29.894 205.589 30.506C205.748 31.118 205.986 31.6507 206.303 32.104C206.621 32.5573 207.029 32.92 207.527 33.192C208.049 33.4413 208.649 33.566 209.329 33.566C210.077 33.566 210.712 33.4753 211.233 33.294C211.755 33.09 212.219 32.852 212.627 32.58L213.647 35.946ZM229.356 35.538C228.676 36.082 227.746 36.5467 226.568 36.932C225.412 37.2947 224.176 37.476 222.862 37.476C220.119 37.476 218.113 36.6827 216.844 35.096C215.574 33.4867 214.94 31.288 214.94 28.5C214.94 25.508 215.654 23.264 217.082 21.768C218.51 20.272 220.516 19.524 223.1 19.524C223.961 19.524 224.8 19.6373 225.616 19.864C226.432 20.0907 227.157 20.4647 227.792 20.986C228.426 21.5073 228.936 22.21 229.322 23.094C229.707 23.978 229.9 25.0773 229.9 26.392C229.9 26.868 229.866 27.378 229.798 27.922C229.752 28.466 229.673 29.0327 229.56 29.622H219.36C219.428 31.05 219.79 32.1267 220.448 32.852C221.128 33.5773 222.216 33.94 223.712 33.94C224.641 33.94 225.468 33.804 226.194 33.532C226.942 33.2373 227.508 32.9427 227.894 32.648L229.356 35.538ZM223.032 23.06C221.876 23.06 221.014 23.4113 220.448 24.114C219.904 24.794 219.575 25.712 219.462 26.868H225.786C225.876 25.644 225.684 24.7033 225.208 24.046C224.754 23.3887 224.029 23.06 223.032 23.06Z" fill="#5FFF9F"/>
<path d="M5.95664 11.438C6.90864 11.2567 7.95131 11.1207 9.08464 11.03C10.2406 10.9167 11.3853 10.86 12.5186 10.86C13.6973 10.86 14.876 10.962 16.0546 11.166C17.256 11.3473 18.3326 11.7327 19.2846 12.322C20.2366 12.8887 21.0073 13.6933 21.5966 14.736C22.2086 15.756 22.5146 17.0933 22.5146 18.748C22.5146 20.244 22.254 21.5133 21.7326 22.556C21.2113 23.576 20.52 24.4147 19.6586 25.072C18.7973 25.7293 17.8113 26.2053 16.7006 26.5C15.6126 26.7947 14.4793 26.942 13.3006 26.942C13.1873 26.942 13.006 26.942 12.7566 26.942C12.5073 26.942 12.2466 26.942 11.9746 26.942C11.7026 26.9193 11.4306 26.8967 11.1586 26.874C10.9093 26.8513 10.728 26.8287 10.6146 26.806V35H5.95664V11.438ZM12.8926 14.872C12.4393 14.872 12.0086 14.8947 11.6006 14.94C11.1926 14.9627 10.864 14.9967 10.6146 15.042V22.76C10.7053 22.7827 10.8413 22.8053 11.0226 22.828C11.204 22.8507 11.3966 22.8733 11.6006 22.896C11.8046 22.896 11.9973 22.896 12.1786 22.896C12.3826 22.896 12.53 22.896 12.6206 22.896C13.2326 22.896 13.8333 22.8393 14.4226 22.726C15.0346 22.6127 15.5786 22.4087 16.0546 22.114C16.5306 21.7967 16.9046 21.366 17.1766 20.822C17.4713 20.278 17.6186 19.564 17.6186 18.68C17.6186 17.932 17.4826 17.32 17.2106 16.844C16.9386 16.3453 16.576 15.9487 16.1226 15.654C15.692 15.3593 15.1933 15.1553 14.6266 15.042C14.06 14.9287 13.482 14.872 12.8926 14.872ZM37.6832 33.538C37.0032 34.082 36.0738 34.5467 34.8952 34.932C33.7392 35.2947 32.5038 35.476 31.1892 35.476C28.4465 35.476 26.4405 34.6827 25.1712 33.096C23.9018 31.4867 23.2672 29.288 23.2672 26.5C23.2672 23.508 23.9812 21.264 25.4092 19.768C26.8372 18.272 28.8432 17.524 31.4272 17.524C32.2885 17.524 33.1272 17.6373 33.9432 17.864C34.7592 18.0907 35.4845 18.4647 36.1192 18.986C36.7538 19.5073 37.2638 20.21 37.6492 21.094C38.0345 21.978 38.2272 23.0773 38.2272 24.392C38.2272 24.868 38.1932 25.378 38.1252 25.922C38.0798 26.466 38.0005 27.0327 37.8872 27.622H27.6872C27.7552 29.05 28.1178 30.1267 28.7752 30.852C29.4552 31.5773 30.5432 31.94 32.0392 31.94C32.9685 31.94 33.7958 31.804 34.5212 31.532C35.2692 31.2373 35.8358 30.9427 36.2212 30.648L37.6832 33.538ZM31.3592 21.06C30.2032 21.06 29.3418 21.4113 28.7752 22.114C28.2312 22.794 27.9025 23.712 27.7892 24.868H34.1132C34.2038 23.644 34.0112 22.7033 33.5352 22.046C33.0818 21.3887 32.3565 21.06 31.3592 21.06ZM50.7328 22.148C50.0301 21.8987 49.3954 21.774 48.8288 21.774C48.0354 21.774 47.3668 21.9893 46.8228 22.42C46.3014 22.828 45.9501 23.3607 45.7688 24.018V35H41.3488V18H44.7828L45.2928 20.244H45.4288C45.8141 19.4053 46.3354 18.7593 46.9928 18.306C47.6501 17.8527 48.4208 17.626 49.3048 17.626C49.8941 17.626 50.5628 17.7507 51.3108 18L50.7328 22.148ZM60.3067 30.308C60.3067 29.8547 60.114 29.492 59.7287 29.22C59.3434 28.948 58.8674 28.6987 58.3007 28.472C57.734 28.2453 57.1107 28.0187 56.4307 27.792C55.7507 27.5427 55.1274 27.214 54.5607 26.806C53.994 26.3753 53.518 25.8427 53.1327 25.208C52.7474 24.5507 52.5547 23.712 52.5547 22.692C52.5547 21.0147 53.0534 19.734 54.0507 18.85C55.048 17.966 56.4874 17.524 58.3687 17.524C59.6607 17.524 60.828 17.66 61.8707 17.932C62.9134 18.204 63.7294 18.51 64.3187 18.85L63.3327 22.046C62.8114 21.842 62.154 21.6267 61.3607 21.4C60.5674 21.1733 59.7627 21.06 58.9467 21.06C57.632 21.06 56.9747 21.57 56.9747 22.59C56.9747 22.998 57.1674 23.3267 57.5527 23.576C57.938 23.8253 58.414 24.0633 58.9807 24.29C59.5474 24.494 60.1707 24.7207 60.8507 24.97C61.5307 25.2193 62.154 25.548 62.7207 25.956C63.2874 26.3413 63.7634 26.8513 64.1487 27.486C64.534 28.1207 64.7267 28.9367 64.7267 29.934C64.7267 31.6567 64.1714 33.0167 63.0607 34.014C61.9727 34.9887 60.3294 35.476 58.1307 35.476C56.9294 35.476 55.796 35.3173 54.7307 35C53.688 34.7053 52.838 34.354 52.1807 33.946L53.4047 30.648C53.926 30.9427 54.6174 31.2373 55.4787 31.532C56.34 31.804 57.224 31.94 58.1307 31.94C58.788 31.94 59.3094 31.8153 59.6947 31.566C60.1027 31.3167 60.3067 30.8973 60.3067 30.308ZM66.7965 26.5C66.7965 23.6213 67.4991 21.4113 68.9045 19.87C70.3098 18.306 72.2818 17.524 74.8205 17.524C76.1805 17.524 77.3591 17.7393 78.3565 18.17C79.3538 18.6007 80.1811 19.2127 80.8385 20.006C81.4958 20.7767 81.9831 21.7173 82.3005 22.828C82.6405 23.9387 82.8105 25.1627 82.8105 26.5C82.8105 29.3787 82.1078 31.6 80.7025 33.164C79.3198 34.7053 77.3591 35.476 74.8205 35.476C73.4605 35.476 72.2818 35.2607 71.2845 34.83C70.2871 34.3993 69.4485 33.7987 68.7685 33.028C68.1111 32.2347 67.6125 31.2827 67.2725 30.172C66.9551 29.0613 66.7965 27.8373 66.7965 26.5ZM71.3525 26.5C71.3525 27.248 71.4205 27.9393 71.5565 28.574C71.6925 29.2087 71.8965 29.764 72.1685 30.24C72.4405 30.716 72.7918 31.09 73.2225 31.362C73.6758 31.6113 74.2085 31.736 74.8205 31.736C75.9765 31.736 76.8378 31.3167 77.4045 30.478C77.9711 29.6393 78.2545 28.3133 78.2545 26.5C78.2545 24.936 77.9938 23.678 77.4725 22.726C76.9511 21.7513 76.0671 21.264 74.8205 21.264C73.7325 21.264 72.8825 21.672 72.2705 22.488C71.6585 23.304 71.3525 24.6413 71.3525 26.5ZM96.2782 35V25.344C96.2782 23.9613 96.0742 22.964 95.6662 22.352C95.2808 21.74 94.6122 21.434 93.6602 21.434C92.8215 21.434 92.1075 21.6833 91.5182 22.182C90.9515 22.658 90.5435 23.2587 90.2942 23.984V35H85.8742V18H89.3762L89.8862 20.244H90.0222C90.5435 19.5187 91.2348 18.884 92.0962 18.34C92.9575 17.796 94.0682 17.524 95.4282 17.524C96.2668 17.524 97.0148 17.6373 97.6722 17.864C98.3295 18.0907 98.8848 18.4647 99.3382 18.986C99.7915 19.5073 100.132 20.2213 100.358 21.128C100.585 22.012 100.698 23.1113 100.698 24.426V35H96.2782ZM104.3 18.986C105.206 18.578 106.283 18.2607 107.53 18.034C108.776 17.7847 110.08 17.66 111.44 17.66C112.618 17.66 113.604 17.8073 114.398 18.102C115.191 18.374 115.814 18.7707 116.268 19.292C116.744 19.8133 117.072 20.4367 117.254 21.162C117.458 21.8873 117.56 22.7033 117.56 23.61C117.56 24.6073 117.526 25.616 117.458 26.636C117.39 27.6333 117.344 28.6193 117.322 29.594C117.322 30.5687 117.356 31.5207 117.424 32.45C117.492 33.3567 117.662 34.218 117.934 35.034H114.33L113.616 32.688H113.446C112.992 33.3907 112.358 34.0027 111.542 34.524C110.748 35.0227 109.717 35.272 108.448 35.272C107.654 35.272 106.94 35.1587 106.306 34.932C105.671 34.6827 105.127 34.3427 104.674 33.912C104.22 33.4587 103.869 32.9373 103.62 32.348C103.37 31.736 103.246 31.056 103.246 30.308C103.246 29.2653 103.472 28.3927 103.926 27.69C104.402 26.9647 105.07 26.3867 105.932 25.956C106.816 25.5027 107.858 25.1967 109.06 25.038C110.284 24.8567 111.644 24.8 113.14 24.868C113.298 23.5987 113.208 22.692 112.868 22.148C112.528 21.5813 111.768 21.298 110.59 21.298C109.706 21.298 108.765 21.3887 107.768 21.57C106.793 21.7513 105.988 21.9893 105.354 22.284L104.3 18.986ZM109.91 31.634C110.794 31.634 111.496 31.4413 112.018 31.056C112.539 30.648 112.924 30.2173 113.174 29.764V27.554C112.471 27.486 111.791 27.4747 111.134 27.52C110.499 27.5653 109.932 27.6673 109.434 27.826C108.935 27.9847 108.538 28.2113 108.244 28.506C107.949 28.8007 107.802 29.1747 107.802 29.628C107.802 30.2627 107.983 30.7613 108.346 31.124C108.731 31.464 109.252 31.634 109.91 31.634ZM125.825 29.288C125.825 30.0813 125.927 30.6593 126.131 31.022C126.335 31.3847 126.663 31.566 127.117 31.566C127.389 31.566 127.649 31.5433 127.899 31.498C128.171 31.4527 128.499 31.3507 128.885 31.192L129.361 34.66C128.998 34.8413 128.443 35.0227 127.695 35.204C126.947 35.3853 126.176 35.476 125.383 35.476C124.091 35.476 123.105 35.1813 122.425 34.592C121.745 33.98 121.405 32.9827 121.405 31.6V11.2H125.825V29.288ZM129.325 38.978H144.421V42.616H129.325V38.978ZM156.74 28.608C156.74 27.8827 156.468 27.2933 155.924 26.84C155.403 26.3867 154.734 25.9787 153.918 25.616C153.125 25.2307 152.252 24.8453 151.3 24.46C150.371 24.052 149.498 23.5647 148.682 22.998C147.889 22.4087 147.22 21.6833 146.676 20.822C146.155 19.9607 145.894 18.8613 145.894 17.524C145.894 16.368 146.087 15.3707 146.472 14.532C146.858 13.6707 147.402 12.9567 148.104 12.39C148.83 11.8233 149.68 11.404 150.654 11.132C151.629 10.86 152.717 10.724 153.918 10.724C155.301 10.724 156.604 10.8487 157.828 11.098C159.052 11.3247 160.061 11.6647 160.854 12.118L159.392 16.028C158.894 15.7107 158.146 15.4273 157.148 15.178C156.151 14.906 155.074 14.77 153.918 14.77C152.83 14.77 151.992 14.9853 151.402 15.416C150.836 15.8467 150.552 16.4247 150.552 17.15C150.552 17.83 150.813 18.3967 151.334 18.85C151.878 19.3033 152.547 19.7227 153.34 20.108C154.156 20.4933 155.029 20.89 155.958 21.298C156.91 21.706 157.783 22.2047 158.576 22.794C159.392 23.3607 160.061 24.0747 160.582 24.936C161.126 25.7747 161.398 26.8287 161.398 28.098C161.398 29.3673 161.183 30.4667 160.752 31.396C160.344 32.3027 159.755 33.062 158.984 33.674C158.236 34.286 157.318 34.7393 156.23 35.034C155.165 35.3287 153.986 35.476 152.694 35.476C150.994 35.476 149.498 35.3173 148.206 35C146.914 34.6827 145.962 34.3653 145.35 34.048L146.846 30.07C147.096 30.206 147.413 30.3533 147.798 30.512C148.206 30.6707 148.66 30.818 149.158 30.954C149.657 31.09 150.178 31.2033 150.722 31.294C151.289 31.3847 151.867 31.43 152.456 31.43C153.839 31.43 154.893 31.2033 155.618 30.75C156.366 30.274 156.74 29.56 156.74 28.608ZM164.4 18H167.63L168.14 20.04H168.276C168.865 19.1787 169.556 18.544 170.35 18.136C171.166 17.728 172.152 17.524 173.308 17.524C175.438 17.524 177.036 18.204 178.102 19.564C179.167 20.9013 179.7 23.066 179.7 26.058C179.7 27.5087 179.53 28.8233 179.19 30.002C178.85 31.158 178.34 32.144 177.66 32.96C177.002 33.776 176.186 34.3993 175.212 34.83C174.26 35.2607 173.16 35.476 171.914 35.476C171.211 35.476 170.633 35.4193 170.18 35.306C169.726 35.2153 169.273 35.0567 168.82 34.83V41.8H164.4V18ZM171.982 21.264C171.12 21.264 170.44 21.4793 169.942 21.91C169.466 22.3407 169.092 22.9867 168.82 23.848V30.92C169.137 31.1693 169.477 31.3733 169.84 31.532C170.225 31.668 170.724 31.736 171.336 31.736C172.605 31.736 173.557 31.294 174.192 30.41C174.826 29.5033 175.144 28.0187 175.144 25.956C175.144 24.46 174.894 23.304 174.396 22.488C173.897 21.672 173.092 21.264 171.982 21.264ZM182.659 18.986C183.566 18.578 184.642 18.2607 185.889 18.034C187.136 17.7847 188.439 17.66 189.799 17.66C190.978 17.66 191.964 17.8073 192.757 18.102C193.55 18.374 194.174 18.7707 194.627 19.292C195.103 19.8133 195.432 20.4367 195.613 21.162C195.817 21.8873 195.919 22.7033 195.919 23.61C195.919 24.6073 195.885 25.616 195.817 26.636C195.749 27.6333 195.704 28.6193 195.681 29.594C195.681 30.5687 195.715 31.5207 195.783 32.45C195.851 33.3567 196.021 34.218 196.293 35.034H192.689L191.975 32.688H191.805C191.352 33.3907 190.717 34.0027 189.901 34.524C189.108 35.0227 188.076 35.272 186.807 35.272C186.014 35.272 185.3 35.1587 184.665 34.932C184.03 34.6827 183.486 34.3427 183.033 33.912C182.58 33.4587 182.228 32.9373 181.979 32.348C181.73 31.736 181.605 31.056 181.605 30.308C181.605 29.2653 181.832 28.3927 182.285 27.69C182.761 26.9647 183.43 26.3867 184.291 25.956C185.175 25.5027 186.218 25.1967 187.419 25.038C188.643 24.8567 190.003 24.8 191.499 24.868C191.658 23.5987 191.567 22.692 191.227 22.148C190.887 21.5813 190.128 21.298 188.949 21.298C188.065 21.298 187.124 21.3887 186.127 21.57C185.152 21.7513 184.348 21.9893 183.713 22.284L182.659 18.986ZM188.269 31.634C189.153 31.634 189.856 31.4413 190.377 31.056C190.898 30.648 191.284 30.2173 191.533 29.764V27.554C190.83 27.486 190.15 27.4747 189.493 27.52C188.858 27.5653 188.292 27.6673 187.793 27.826C187.294 27.9847 186.898 28.2113 186.603 28.506C186.308 28.8007 186.161 29.1747 186.161 29.628C186.161 30.2627 186.342 30.7613 186.705 31.124C187.09 31.464 187.612 31.634 188.269 31.634ZM211.664 33.946C210.984 34.4447 210.157 34.8187 209.182 35.068C208.23 35.34 207.244 35.476 206.224 35.476C204.864 35.476 203.708 35.2607 202.756 34.83C201.827 34.3993 201.067 33.7987 200.478 33.028C199.889 32.2347 199.458 31.2827 199.186 30.172C198.937 29.0613 198.812 27.8373 198.812 26.5C198.812 23.6213 199.458 21.4113 200.75 19.87C202.042 18.306 203.923 17.524 206.394 17.524C207.641 17.524 208.638 17.626 209.386 17.83C210.157 18.034 210.848 18.2947 211.46 18.612L210.406 22.216C209.885 21.9667 209.363 21.774 208.842 21.638C208.343 21.502 207.765 21.434 207.108 21.434C205.884 21.434 204.955 21.842 204.32 22.658C203.685 23.4513 203.368 24.732 203.368 26.5C203.368 27.2253 203.447 27.894 203.606 28.506C203.765 29.118 204.003 29.6507 204.32 30.104C204.637 30.5573 205.045 30.92 205.544 31.192C206.065 31.4413 206.666 31.566 207.346 31.566C208.094 31.566 208.729 31.4753 209.25 31.294C209.771 31.09 210.236 30.852 210.644 30.58L211.664 33.946ZM227.373 33.538C226.693 34.082 225.763 34.5467 224.585 34.932C223.429 35.2947 222.193 35.476 220.879 35.476C218.136 35.476 216.13 34.6827 214.861 33.096C213.591 31.4867 212.957 29.288 212.957 26.5C212.957 23.508 213.671 21.264 215.099 19.768C216.527 18.272 218.533 17.524 221.117 17.524C221.978 17.524 222.817 17.6373 223.633 17.864C224.449 18.0907 225.174 18.4647 225.809 18.986C226.443 19.5073 226.953 20.21 227.339 21.094C227.724 21.978 227.917 23.0773 227.917 24.392C227.917 24.868 227.883 25.378 227.815 25.922C227.769 26.466 227.69 27.0327 227.577 27.622H217.377C217.445 29.05 217.807 30.1267 218.465 30.852C219.145 31.5773 220.233 31.94 221.729 31.94C222.658 31.94 223.485 31.804 224.211 31.532C224.959 31.2373 225.525 30.9427 225.911 30.648L227.373 33.538ZM221.049 21.06C219.893 21.06 219.031 21.4113 218.465 22.114C217.921 22.794 217.592 23.712 217.479 24.868H223.803C223.893 23.644 223.701 22.7033 223.225 22.046C222.771 21.3887 222.046 21.06 221.049 21.06Z" fill="#FD64F7"/>
</svg>
