<svg id="Слой_1" data-name="Слой 1" xmlns="http://www.w3.org/2000/svg" viewBox="0 0 1000 1000"><defs><style>.cls-1{fill:#fff;}</style></defs><path class="cls-1" d="M1000,553.11V446.89l-99-29.16c-12-37-16.21-49.87-28.23-86.88l62.94-81.78-62.43-85.93-97.22,34.59L702.16,144,705,40.88,604,8.06,545.67,93.19H454.33L396,8.06,295,40.88,297.84,144l-73.91,53.69-97.22-34.59L64.28,249.07l62.94,81.78c-12,37-16.2,49.88-28.23,86.88L0,446.89V553.11l99,29.16c12,37,16.21,49.87,28.23,86.88L64.28,750.93l62.43,85.93,97.22-34.59L297.84,856,295,959.12l101,32.82,58.33-85.14h91.34L604,991.94l101-32.82L702.16,856l73.91-53.69,97.22,34.59,62.43-85.93-62.94-81.78c12-37,16.2-49.88,28.23-86.88ZM500,738.91c-131.95,0-238.91-107-238.91-238.91S368.05,261.09,500,261.09,738.91,368.05,738.91,500,632,738.91,500,738.91Z"/></svg>